<svg width="400" height="400" viewBox="0 0 400 400" fill="none" xmlns="http://www.w3.org/2000/svg">
<rect width="400" height="400" rx="50" fill="black"/>
<rect x="109.308" y="31" width="71.1439" height="71.1439" fill="white"/>
<rect x="109.308" y="119.727" width="71.1439" height="71.1439" fill="white"/>
<rect x="109.308" y="208.384" width="71.1439" height="71.1439" fill="white"/>
<rect x="109.308" y="297.04" width="71.1439" height="71.1439" fill="white"/>
<path d="M200.536 267.964C216.093 267.96 231.496 264.891 245.867 258.933C260.238 252.975 273.295 244.246 284.292 233.242C295.289 222.238 304.011 209.176 309.96 194.801C315.909 180.427 318.969 165.021 318.964 149.464C318.96 133.907 315.891 118.504 309.933 104.133C303.975 89.7618 295.245 76.705 284.242 65.7078C273.238 54.7107 260.176 45.9886 245.801 40.0395C231.427 34.0905 216.021 31.0309 200.464 31.0356L200.486 101.566C206.78 101.564 213.014 102.802 218.83 105.21C224.646 107.617 229.932 111.146 234.384 115.596C238.836 120.045 242.369 125.328 244.779 131.143C247.19 136.958 248.432 143.191 248.434 149.486C248.435 155.78 247.197 162.014 244.79 167.83C242.383 173.646 238.854 178.932 234.404 183.384C229.955 187.836 224.671 191.369 218.857 193.779C213.042 196.19 206.809 197.432 200.514 197.434L200.536 267.964Z" fill="white"/>
</svg>
